<svg width="40" height="40" viewBox="0 0 40 40" fill="none" xmlns="http://www.w3.org/2000/svg">
    <path d="M35.8825 26.5496C35.8825 27.4053 35.6557 28.2457 35.225 28.9864C34.7945 29.7268 34.1751 30.3412 33.4295 30.7676L21.9406 37.3369C21.1995 37.7606 20.3596 37.9837 19.5049 37.9837C18.6501 37.9837 17.8102 37.7606 17.0691 37.3369L5.5802 30.7676C4.83462 30.3412 4.21522 29.7268 3.7845 28.9864C3.35377 28.2457 3.12696 27.4053 3.12695 26.5496V13.4504C3.12694 12.5948 3.35371 11.7543 3.78439 11.0137C4.21507 10.2731 4.83442 9.65868 5.57995 9.23235L17.0688 2.66308C17.81 2.23929 18.6498 2.01628 19.5046 2.01628C20.3594 2.01628 21.1992 2.23929 21.9404 2.66308L33.4293 9.23235C34.1748 9.65863 34.7942 10.2731 35.225 11.0137C35.6557 11.7542 35.8825 12.5948 35.8825 13.4504V26.5496Z" fill="#1D86CC" />
    <path d="M18.0881 4.49203L6.74591 11.0109C6.31471 11.2587 5.95664 11.615 5.70777 12.0442C5.45888 12.4733 5.32795 12.9601 5.32813 13.4555L5.33521 26.5077C5.33553 27.0025 5.46656 27.4885 5.71513 27.9168C5.96371 28.3452 6.32113 28.7011 6.75153 28.9487L18.1069 35.4807C18.538 35.7283 19.027 35.8587 19.5247 35.8587C20.0225 35.8587 20.5115 35.7283 20.9425 35.4807L32.2847 28.9638C32.7159 28.7161 33.074 28.3598 33.3229 27.9305C33.5717 27.5014 33.7027 27.0146 33.7025 26.5192L33.6954 13.467C33.6952 12.9723 33.5639 12.4864 33.3153 12.0581C33.0669 11.6297 32.7096 11.2739 32.2791 11.0263L20.9237 4.49397C20.4926 4.24633 20.0036 4.11595 19.5059 4.11595C19.0082 4.11595 18.5192 4.24633 18.0881 4.49397V4.49203Z" fill="white" />
    <path d="M14.3462 31.069C14.3636 30.9839 14.402 30.9046 14.4576 30.8377C17.8505 25.1088 21.244 19.3802 24.638 13.6518C24.6852 13.5723 24.7289 13.4906 24.769 13.4193C24.7392 13.3675 24.7052 13.3782 24.6764 13.3782C23.2263 13.3833 21.7763 13.3925 20.3253 13.3908C20.2633 13.3897 20.2024 13.4076 20.1509 13.4419C20.0994 13.4763 20.0596 13.5255 20.0371 13.583C18.9433 15.383 17.8481 17.1825 16.7515 18.9815C14.4285 22.7954 12.1052 26.6092 9.78166 30.423C9.76112 30.4568 9.73961 30.4899 9.72128 30.5246C9.68021 30.6035 9.63352 30.6159 9.55017 30.5677C9.18961 30.3558 8.82515 30.1508 8.4421 29.9316L18.7821 13.4295C18.7599 13.3624 18.7141 13.3792 18.6789 13.3779C18.1248 13.3614 17.5704 13.3376 17.0167 13.3327C16.2389 13.3098 15.4638 13.4341 14.7326 13.699C14.0667 13.9444 13.5009 14.4016 13.1227 14.9996C11.2335 17.9319 9.33709 20.8595 7.43352 23.7827C7.4037 23.8289 7.37192 23.8741 7.34112 23.9199C7.2321 23.9199 7.24824 23.8304 7.23821 23.7678C7.22856 23.6737 7.22628 23.579 7.23137 23.4845C7.23137 20.2513 7.24261 17.0181 7.22135 13.7851C7.20428 13.5066 7.2716 13.2293 7.41463 12.9892C7.55768 12.7492 7.76981 12.5573 8.02361 12.4385C10.5221 11.0212 13.0044 9.57459 15.4948 8.14286C16.6063 7.50386 17.7212 6.87095 18.8246 6.21857C19.0322 6.07999 19.2765 6.006 19.5264 6.006C19.7764 6.006 20.0207 6.07999 20.2282 6.21857C22.2571 7.4034 24.3041 8.56076 26.3435 9.72881C27.8818 10.6102 29.4206 11.49 30.9603 12.3682C31.0706 12.4308 31.1779 12.4976 31.2886 12.5592C31.4688 12.6544 31.6176 12.7989 31.7176 12.9756C31.8178 13.1524 31.865 13.3539 31.8538 13.5565C31.8567 17.0735 31.8567 20.5904 31.8538 24.1074C31.8609 24.1939 31.8516 24.281 31.8259 24.364C31.7037 24.4815 31.6594 24.3497 31.6149 24.2872C31.4316 24.0305 31.2671 23.7603 31.0967 23.4947C29.7325 21.3695 28.3636 19.2472 26.9901 17.1278C26.5285 16.4114 26.0612 15.698 25.6045 14.9787C25.498 14.8109 25.4787 14.8085 25.3721 14.9887C24.6831 16.1488 23.9945 17.3092 23.3063 18.4698C23.2685 18.5343 23.2523 18.609 23.2598 18.6833C23.2674 18.7576 23.2984 18.8276 23.3483 18.8833C23.9158 19.7943 24.4821 20.706 25.0475 21.6183L27.9458 26.2837C28.3369 26.9142 28.7288 27.5442 29.1211 28.1735C29.194 28.2579 29.235 28.3649 29.237 28.4761C29.1585 28.6312 28.995 28.6748 28.8588 28.7453C28.6354 28.9059 28.3897 29.0336 28.1297 29.1241C27.9893 29.0893 27.9397 28.9633 27.8732 28.8601C26.9759 27.4673 26.09 26.0675 25.1985 24.6712C24.2816 23.2361 23.3691 21.7956 22.4483 20.3619C22.3302 20.1781 22.3114 20.1768 22.2004 20.3619C21.3994 21.7029 20.6093 23.0503 19.8063 24.3898C19.7653 24.4526 19.7451 24.5266 19.7486 24.6015C19.7522 24.6763 19.7793 24.7481 19.8261 24.8067C20.9078 26.4656 21.9645 28.1392 23.0347 29.8064C23.3332 30.2709 23.6338 30.7338 23.9269 31.2018C23.9841 31.2928 24.0623 31.3835 24.0105 31.5066C23.7296 31.7241 23.4264 31.9116 23.1061 32.0661C22.1065 32.6448 21.1064 33.2227 20.1058 33.7999C19.9455 33.9028 19.7588 33.9575 19.568 33.9575C19.3772 33.9575 19.1905 33.9028 19.0302 33.7999C17.5564 32.9515 16.0798 32.1069 14.6006 31.2661C14.4987 31.2257 14.4105 31.1573 14.3462 31.069Z" fill="#2D374B" />
    <path d="M31.7821 24.3993C31.7843 24.3125 31.7887 24.2259 31.7887 24.1393C31.7887 20.6302 31.7899 17.1214 31.7921 13.6127C31.8046 13.3999 31.7545 13.1881 31.6477 13.0033C31.5411 12.8185 31.3825 12.6687 31.1913 12.5723C27.4885 10.46 23.7883 8.34288 20.0908 6.221C19.9243 6.1132 19.7301 6.05559 19.5315 6.05506C19.3329 6.05455 19.1383 6.11115 18.9713 6.21808C16.918 7.40559 14.862 8.59002 12.8035 9.77138C11.1518 10.7228 9.50029 11.6744 7.84882 12.6263C7.67243 12.7174 7.52623 12.8571 7.42774 13.0289C7.32925 13.2006 7.28271 13.397 7.29369 13.5944C7.30217 16.9614 7.30696 20.3284 7.30811 23.6953C7.30811 23.7703 7.27755 23.8537 7.34331 23.9199C6.9522 24.5679 6.52246 25.1906 6.11057 25.8247C5.90426 26.1422 5.69715 26.4591 5.4892 26.7755C5.45595 26.8261 5.41757 26.8728 5.35182 26.9631C5.34693 26.857 5.3418 26.7984 5.3418 26.74C5.3418 22.2999 5.34261 17.8597 5.34424 13.4195C5.33335 12.9267 5.45908 12.4405 5.70761 12.0141C5.95616 11.5877 6.31794 11.2377 6.75322 11.0024C8.18909 10.154 9.64402 9.33719 11.0894 8.50384C12.309 7.80111 13.5243 7.09303 14.7431 6.38908C15.8798 5.73232 17.005 5.05587 18.161 4.43487C18.6037 4.18954 19.1045 4.06702 19.6111 4.08011C20.1177 4.09321 20.6114 4.24143 21.0408 4.5093C21.9696 5.03373 22.8946 5.56789 23.8208 6.09768C24.692 6.59664 25.5631 7.09595 26.4342 7.59557C27.2369 8.05544 28.0399 8.51486 28.8432 8.97378C29.6396 9.42896 30.436 9.8839 31.2326 10.3386C31.5827 10.5388 31.9325 10.7392 32.2803 10.9431C32.6643 11.1593 32.9946 11.4588 33.2464 11.8193C33.4981 12.1799 33.6651 12.5922 33.7348 13.0257C33.7511 13.1509 33.7563 13.2774 33.7499 13.4035C33.7499 17.7726 33.7504 22.1418 33.7516 26.5111C33.7538 26.9263 33.6639 27.3367 33.4881 27.7132C33.3121 28.0898 33.0547 28.4228 32.7342 28.6886C32.5514 28.8273 32.3549 28.9472 32.1476 29.0465C30.9579 29.737 29.7667 30.4249 28.5736 31.1099C27.3059 31.8396 26.0376 32.5681 24.7688 33.2954C23.5497 33.9982 22.3318 34.7036 21.1153 35.4116C20.8124 35.6145 20.4716 35.7544 20.1131 35.823C19.5176 35.9385 18.9005 35.8604 18.3531 35.6002C17.7464 35.2764 17.1553 34.9252 16.5572 34.5841C15.7539 34.1256 14.9511 33.6661 14.1486 33.2057C13.922 33.076 13.6951 32.9469 13.4681 32.8187C13.3848 32.7715 13.3278 32.7236 13.3928 32.6153C13.693 32.115 13.9885 31.6117 14.2872 31.1104C14.2978 31.0921 14.3246 31.0836 14.344 31.0702C14.6223 31.1996 14.8918 31.347 15.1506 31.5117C16.4613 32.2578 17.77 33.0072 19.0766 33.7605C19.2276 33.8554 19.4029 33.905 19.5815 33.903C19.7601 33.9011 19.9344 33.8481 20.0833 33.7498C21.3243 33.0252 22.5717 32.311 23.8164 31.5932C23.878 31.5577 23.9411 31.5253 24.0037 31.4918C24.121 31.3427 24.2778 31.2288 24.4564 31.1632C25.5808 30.522 26.697 29.8681 27.8211 29.2286C27.915 29.1754 27.9996 29.0932 28.1218 29.107L29.2233 28.4722C29.2905 28.3321 29.434 28.2868 29.5543 28.2177C30.1084 27.8993 30.6574 27.5722 31.2165 27.264C31.3783 27.1793 31.512 27.0499 31.6017 26.8913C31.6914 26.7327 31.7332 26.552 31.7222 26.3703C31.7279 25.8123 31.7222 25.2541 31.7249 24.6958C31.7054 24.5933 31.7259 24.4873 31.7821 24.3993Z" fill="#96BEDC" />
</svg>