<svg width="40" height="40" viewBox="0 0 40 40" fill="none" xmlns="http://www.w3.org/2000/svg">
    <path fill-rule="evenodd" clip-rule="evenodd" d="M11.5331 35H5.81615C4.61486 35 4.02146 35 3.65965 34.7776C3.26886 34.5341 3.03006 34.1308 3.00111 33.6855C2.97938 33.2754 3.27612 32.7745 3.86951 31.7731L17.9853 7.86207C18.5859 6.8467 18.8898 6.33901 19.2734 6.15125C19.6859 5.94958 20.178 5.94958 20.5905 6.15125C20.974 6.33901 21.278 6.8467 21.8786 7.86207L24.7805 12.7302L24.7953 12.7551C25.444 13.8443 25.773 14.3968 25.9167 14.9765C26.0758 15.6119 26.0758 16.2745 25.9167 16.9098C25.7719 17.494 25.4463 18.0504 24.7877 19.1562L17.373 31.7522L17.3538 31.7845C16.7009 32.8828 16.3699 33.4394 15.9112 33.8594C15.4119 34.3185 14.8112 34.6521 14.1527 34.8402C13.5521 35 12.8791 35 11.5331 35ZM25.9702 35H34.1618C35.3703 35 35.9783 35 36.3404 34.7708C36.7311 34.5273 36.977 34.1168 36.999 33.672C37.0198 33.2751 36.7295 32.7937 36.1607 31.8504C36.1411 31.8183 36.1215 31.7856 36.1015 31.7524L31.9982 25.0065L31.9515 24.9306C31.3749 23.9936 31.0839 23.5204 30.7101 23.3375C30.5073 23.238 30.2828 23.1862 30.0552 23.1862C29.8275 23.1862 29.6031 23.238 29.4003 23.3375C29.024 23.5252 28.7201 24.019 28.1194 25.0135L24.0308 31.7594L24.0167 31.7826C23.4182 32.7755 23.1191 33.2717 23.1407 33.6788C23.1696 34.124 23.4084 34.5341 23.7992 34.7776C24.1538 35 24.7617 35 25.9702 35Z" fill="#E84142" />
</svg>