<svg width="152" height="152" viewBox="0 0 152 152" fill="none" xmlns="http://www.w3.org/2000/svg">
<rect width="152" height="152" fill="#262A37"/>
<g opacity="0.3">
<path d="M97.2262 86.6702C92.9142 85.1096 85.7295 83.25 76 83.25C66.2705 83.25 59.0857 85.1096 54.7738 86.6702C51.2086 87.9589 48.8125 91.3809 48.8125 95.1889V103.188C48.8125 104.188 49.6245 105 50.625 105H101.375C102.375 105 103.188 104.188 103.188 103.188V95.1889C103.188 91.3809 100.791 87.9589 97.2262 86.6702Z" fill="#7F88A6"/>
<path d="M76 79.625C83.9949 79.625 90.5 73.1199 90.5 65.125V61.5C90.5 53.5051 83.9949 47 76 47C68.0051 47 61.5 53.5051 61.5 61.5V65.125C61.5 73.1199 68.0051 79.625 76 79.625Z" fill="#7F88A6"/>
</g>
</svg>
