<svg width="22" height="22" viewBox="0 0 22 22" fill="none" xmlns="http://www.w3.org/2000/svg">
<path d="M14.0884 7.92167C15.7396 9.57229 17.8561 10.6784 20.154 11.0915C21.8379 7.22776 20.3373 2.56651 20.2539 2.33092C20.2094 2.19716 20.1346 2.07547 20.0354 1.97531C19.9362 1.87515 19.8153 1.79922 19.6819 1.75342C19.4445 1.67276 14.7979 0.130006 10.9131 1.84509C11.325 4.14775 12.4333 6.26866 14.0884 7.92167Z" fill="#FFD600"/>
<path d="M12.7926 9.21715C11.0388 7.46512 9.81221 5.25582 9.25248 2.84082C9.0159 3.02319 8.79031 3.21939 8.5769 3.4284C4.91023 7.10057 5.4474 12.0597 5.90665 14.1992L1.83848 14.7804C1.66939 14.8041 1.51026 14.8745 1.37904 14.9837C1.24781 15.0929 1.1497 15.2367 1.09577 15.3987C1.04183 15.5607 1.03421 15.7345 1.07377 15.9006C1.11332 16.0667 1.19848 16.2184 1.31965 16.3387L5.67382 20.6929C5.79405 20.814 5.94573 20.8992 6.11175 20.9388C6.27778 20.9784 6.45157 20.9709 6.61354 20.9171C6.77552 20.8632 6.91925 20.7652 7.02854 20.6341C7.13783 20.503 7.20835 20.344 7.23215 20.175L7.81332 16.1068C8.81955 16.3232 9.84575 16.4332 10.875 16.435C12.2952 16.476 13.7093 16.2316 15.0335 15.7164C16.3576 15.2013 17.565 14.4257 18.5842 13.4357C18.793 13.2229 18.9886 12.9976 19.1699 12.761C16.7544 12.1998 14.5449 10.972 12.7926 9.21715Z" fill="#FFD600"/>
</svg>
