<svg width="40" height="40" viewBox="0 0 40 40" fill="none" xmlns="http://www.w3.org/2000/svg">
    <path fill-rule="evenodd" clip-rule="evenodd" d="M21.7688 13.4583L28.578 9.5V17.4167L21.7688 13.4583ZM28.578 30.4226L19.4991 35.7004L10.4201 30.4226V21.1865L19.4991 26.4643L28.578 21.1865V30.4226ZM10.4201 9.5L17.2293 13.4583L10.4201 17.4167V9.5ZM20.6339 15.3433L27.4432 19.3016L20.6339 23.2599V15.3433ZM18.3642 23.2599L11.555 19.3016L18.3642 15.3433V23.2599ZM27.4432 7.61508L19.4991 12.1389L11.555 7.61508L19.4991 2.90277L27.4432 7.61508ZM8.15039 6.86111V31.5536L19.4991 37.9623L30.8478 31.5536V6.86111L19.4991 0.452377L8.15039 6.86111Z" fill="#13B5EC" />
</svg>