
<svg width="130" height="36" fill="none" xmlns="http://www.w3.org/2000/svg"><rect width="130" height="36" rx="18" fill="#fff"/><rect width="130" height="36" rx="18" fill="url(#a)"/><path d="M31.089 18.121c-2.042-.357-3.802-1.28-5.378-2.857-1.576-1.575-2.268-3.454-2.627-5.493M18.786 22.189l-4.812.534L18.251 27l.535-4.811Z" stroke="#000" stroke-width="1.8" stroke-miterlimit="10" stroke-linecap="round"/><path d="M20.194 12.541c-2.78 4.3-1.408 9.647-1.408 9.647s6.797 1.757 11.227-2.673c3.738-3.737 1.604-10.158 1.604-10.158s-4.837-1.555-8.533.414" stroke="#000" stroke-width="1.8" stroke-miterlimit="10" stroke-linecap="round"/><path d="M26.8 11.733a.493.493 0 1 0 0-.986.493.493 0 0 0 0 .986Z" stroke="#000" stroke-width="1.8" stroke-miterlimit="10" stroke-linecap="round"/><path d="M26.8 11.733a.493.493 0 1 0 0-.986.493.493 0 0 0 0 .986Z" fill="#000"/><g clip-path="url(#b)" stroke="#000" stroke-width="1.8" stroke-miterlimit="10" stroke-linecap="round"><path d="M53.219 18H76.78M69.469 10.688 76.78 18l-7.312 7.313"/></g><circle cx="107" cy="18" r="13" fill="#000"/><path d="M103.043 22c1.73 0 2.358-1.071 2.58-2.244v2.05h1.527v-3.61h-4.126v.997h2.425c-.174 1.09-.792 1.708-1.787 1.708-1.334 0-1.923-1.053-1.923-2.383 0-1.45.609-2.428 1.913-2.428.937 0 1.44.6 1.527 1.394h1.729c-.097-1.82-1.787-2.484-3.333-2.484-2.541 0-3.575 1.7-3.575 3.51 0 1.93 1.13 3.49 3.043 3.49ZM108.416 21.806h1.7V18.99h3.546v-1.108h-3.546v-1.56H114v-1.109h-5.584v6.594Z" fill="#fff"/><defs><linearGradient id="a" x1="-13.732" y1="7.099" x2="144.486" y2="7.954" gradientUnits="userSpaceOnUse"><stop stop-color="#FAFF00"/><stop offset="1" stop-color="#93FF61"/></linearGradient><clipPath id="b"><path fill="#fff" transform="translate(52 5)" d="M0 0h26v26H0z"/></clipPath></defs></svg>