<svg width="39" height="39" viewBox="0 0 39 39" fill="none" xmlns="http://www.w3.org/2000/svg">
<path fill-rule="evenodd" clip-rule="evenodd" d="M35 19.5C35 25.3211 26.2102 28 21.7683 28C19.1071 28 14.2633 25.725 10.7688 23.544C10.3809 23.3019 9.87817 23.3425 9.54144 23.6518L5.15989 27.6767C3.57218 29.1046 3 27.5011 3 25.4817L3 13.76C3 11.7406 3.59654 10.1786 5.18425 11.6065L9.21857 15.3412C9.55911 15.6564 10.0708 15.6947 10.4627 15.4463C13.9829 13.2151 19.0693 11 21.7683 11C26.2102 11 35 13.6789 35 19.5ZM29.9594 17.8C29.9594 19.0518 28.831 20.0667 27.439 20.0667C26.0471 20.0667 24.9187 19.0518 24.9187 17.8C24.9187 16.5482 26.0471 15.5333 27.439 15.5333C28.831 15.5333 29.9594 16.5482 29.9594 17.8Z" fill="black"/>
</svg>
