<svg width="40" height="40" viewBox="0 0 40 40" fill="none" xmlns="http://www.w3.org/2000/svg">
    <path d="M34.414 4.45703L21.9219 13.7351L24.232 8.26117L34.414 4.45703Z" fill="#E2761B" stroke="#E2761B" stroke-linecap="round" stroke-linejoin="round" />
    <path d="M5.57422 4.45703L17.9659 13.823L15.7688 8.26117L5.57422 4.45703Z" fill="#E4761B" stroke="#E4761B" stroke-linecap="round" stroke-linejoin="round" />
    <path d="M29.9189 25.9636L26.5918 31.0609L33.7104 33.0195L35.7569 26.0766L29.9189 25.9636Z" fill="#E4761B" stroke="#E4761B" stroke-linecap="round" stroke-linejoin="round" />
    <path d="M4.25586 26.0766L6.28976 33.0195L13.4084 31.0609L10.0813 25.9636L4.25586 26.0766Z" fill="#E4761B" stroke="#E4761B" stroke-linecap="round" stroke-linejoin="round" />
    <path d="M13.0071 17.3509L11.0234 20.3516L18.0919 20.6654L17.8408 13.0697L13.0071 17.3509Z" fill="#E4761B" stroke="#E4761B" stroke-linecap="round" stroke-linejoin="round" />
    <path d="M26.9795 17.3509L22.0831 12.9818L21.9199 20.6654L28.9758 20.3516L26.9795 17.3509Z" fill="#E4761B" stroke="#E4761B" stroke-linecap="round" stroke-linejoin="round" />
    <path d="M13.4082 31.0609L17.6518 28.9893L13.9857 26.1268L13.4082 31.0609Z" fill="#E4761B" stroke="#E4761B" stroke-linecap="round" stroke-linejoin="round" />
    <path d="M22.334 28.9893L26.5901 31.0609L26 26.1268L22.334 28.9893Z" fill="#E4761B" stroke="#E4761B" stroke-linecap="round" stroke-linejoin="round" />
    <path d="M26.5901 31.0609L22.334 28.9894L22.673 31.764L22.6353 32.9316L26.5901 31.0609Z" fill="#D7C1B3" stroke="#D7C1B3" stroke-linecap="round" stroke-linejoin="round" />
    <path d="M13.4082 31.0609L17.363 32.9316L17.3379 31.764L17.6518 28.9894L13.4082 31.0609Z" fill="#D7C1B3" stroke="#D7C1B3" stroke-linecap="round" stroke-linejoin="round" />
    <path d="M17.4272 24.2938L13.8867 23.2517L16.3852 22.1093L17.4272 24.2938Z" fill="#233447" stroke="#233447" stroke-linecap="round" stroke-linejoin="round" />
    <path d="M22.5605 24.2938L23.6026 22.1093L26.1136 23.2517L22.5605 24.2938Z" fill="#233447" stroke="#233447" stroke-linecap="round" stroke-linejoin="round" />
    <path d="M13.4091 31.0609L14.0117 25.9636L10.082 26.0766L13.4091 31.0609Z" fill="#CD6116" stroke="#CD6116" stroke-linecap="round" stroke-linejoin="round" />
    <path d="M25.9883 25.9636L26.5909 31.0609L29.918 26.0766L25.9883 25.9636Z" fill="#CD6116" stroke="#CD6116" stroke-linecap="round" stroke-linejoin="round" />
    <path d="M28.9777 20.3516L21.9219 20.6654L22.5747 24.2938L23.6168 22.1093L26.1278 23.2517L28.9777 20.3516Z" fill="#CD6116" stroke="#CD6116" stroke-linecap="round" stroke-linejoin="round" />
    <path d="M13.886 23.2517L16.3969 22.1093L17.4265 24.2938L18.0919 20.6654L11.0234 20.3516L13.886 23.2517Z" fill="#CD6116" stroke="#CD6116" stroke-linecap="round" stroke-linejoin="round" />
    <path d="M11.0234 20.3516L13.9864 26.1268L13.886 23.2517L11.0234 20.3516Z" fill="#E4751F" stroke="#E4751F" stroke-linecap="round" stroke-linejoin="round" />
    <path d="M26.1275 23.2517L26.002 26.1268L28.9775 20.3516L26.1275 23.2517Z" fill="#E4751F" stroke="#E4751F" stroke-linecap="round" stroke-linejoin="round" />
    <path d="M18.0912 20.6654L17.4258 24.2938L18.2544 28.575L18.4427 22.9378L18.0912 20.6654Z" fill="#E4751F" stroke="#E4751F" stroke-linecap="round" stroke-linejoin="round" />
    <path d="M21.921 20.6654L21.582 22.9253L21.7327 28.575L22.5739 24.2938L21.921 20.6654Z" fill="#E4751F" stroke="#E4751F" stroke-linecap="round" stroke-linejoin="round" />
    <path d="M22.5736 24.2938L21.7324 28.575L22.3351 28.9893L26.0011 26.1268L26.1266 23.2517L22.5736 24.2938Z" fill="#F6851B" stroke="#F6851B" stroke-linecap="round" stroke-linejoin="round" />
    <path d="M13.8867 23.2517L13.9872 26.1268L17.6532 28.9893L18.2558 28.575L17.4272 24.2938L13.8867 23.2517Z" fill="#F6851B" stroke="#F6851B" stroke-linecap="round" stroke-linejoin="round" />
    <path d="M22.6361 32.9316L22.6737 31.764L22.3599 31.4878H17.6267L17.3379 31.764L17.363 32.9316L13.4082 31.0609L14.7892 32.1909L17.589 34.1369H22.3975L25.2098 32.1909L26.5909 31.0609L22.6361 32.9316Z" fill="#C0AD9E" stroke="#C0AD9E" stroke-linecap="round" stroke-linejoin="round" />
    <path d="M22.3348 28.9894L21.7321 28.5751H18.2544L17.6518 28.9894L17.3379 31.764L17.6267 31.4878H22.3599L22.6737 31.764L22.3348 28.9894Z" fill="#161616" stroke="#161616" stroke-linecap="round" stroke-linejoin="round" />
    <path d="M34.9391 14.3378L36.0063 9.21535L34.4118 4.45703L22.334 13.4213L26.9793 17.3509L33.5455 19.2718L35.0019 17.5769L34.3742 17.125L35.3786 16.2084L34.6002 15.6058L35.6045 14.84L34.9391 14.3378Z" fill="#763D16" stroke="#763D16" stroke-linecap="round" stroke-linejoin="round" />
    <path d="M3.99219 9.21535L5.05936 14.3378L4.38139 14.84L5.38579 15.6058L4.61993 16.2084L5.62433 17.125L4.99658 17.5769L6.4404 19.2718L13.0066 17.3509L17.652 13.4213L5.57411 4.45703L3.99219 9.21535Z" fill="#763D16" stroke="#763D16" stroke-linecap="round" stroke-linejoin="round" />
    <path d="M33.5475 19.2719L26.9812 17.351L28.9775 20.3516L26.002 26.1268L29.9191 26.0766H35.7571L33.5475 19.2719Z" fill="#F6851B" stroke="#F6851B" stroke-linecap="round" stroke-linejoin="round" />
    <path d="M13.0066 17.351L6.44042 19.2719L4.25586 26.0766H10.0813L13.9859 26.1268L11.023 20.3516L13.0066 17.351Z" fill="#F6851B" stroke="#F6851B" stroke-linecap="round" stroke-linejoin="round" />
    <path d="M21.9214 20.6654L22.3358 13.4212L24.2441 8.26111H15.7695L17.6528 13.4212L18.0922 20.6654L18.2429 22.9504L18.2554 28.575H21.7331L21.7582 22.9504L21.9214 20.6654Z" fill="#F6851B" stroke="#F6851B" stroke-linecap="round" stroke-linejoin="round" />
</svg>