<svg width="40" height="40" viewBox="0 0 40 40" fill="none" xmlns="http://www.w3.org/2000/svg">
    <path d="M29.4746 13.3012C29.1311 13.1185 28.7478 13.023 28.3584 13.023C27.9691 13.023 27.5858 13.1185 27.2423 13.3012L22.0334 16.3613L18.4989 18.3086L13.3831 21.3687C13.0396 21.5513 12.6562 21.6469 12.2669 21.6469C11.8776 21.6469 11.4942 21.5513 11.1507 21.3687L7.15108 18.9577C6.81131 18.7578 6.52967 18.4731 6.33393 18.1316C6.1382 17.7901 6.03513 17.4037 6.0349 17.0104V12.3739C6.03786 11.9811 6.14208 11.5957 6.33755 11.2547C6.53301 10.9137 6.81316 10.6285 7.15108 10.4266L11.1507 8.10831C11.4942 7.92566 11.8776 7.83012 12.2669 7.83012C12.6562 7.83012 13.0396 7.92566 13.3831 8.10831L17.3827 10.5193C17.7225 10.7192 18.0041 11.0039 18.1999 11.3454C18.3956 11.6869 18.4987 12.0733 18.4989 12.4666V15.5267L22.0334 13.4866V10.3338C22.0305 9.94107 21.9263 9.55566 21.7308 9.21464C21.5353 8.87362 21.2552 8.58844 20.9173 8.3865L13.4761 4.02819C13.1326 3.84554 12.7492 3.75 12.3599 3.75C11.9706 3.75 11.5873 3.84554 11.2437 4.02819L3.61652 8.47923C3.27481 8.65299 2.98897 8.91901 2.79162 9.24693C2.59426 9.57485 2.49333 9.95147 2.50034 10.3338V19.0504C2.5033 19.4432 2.60752 19.8286 2.80298 20.1696C2.99845 20.5107 3.2786 20.7958 3.61652 20.9978L11.1507 25.3561C11.4942 25.5387 11.8776 25.6343 12.2669 25.6343C12.6562 25.6343 13.0396 25.5387 13.3831 25.3561L18.4989 22.3887L22.0334 20.3487L27.1493 17.3813C27.4928 17.1987 27.8761 17.1031 28.2654 17.1031C28.6548 17.1031 29.0381 17.1987 29.3816 17.3813L33.3812 19.6996C33.721 19.8994 34.0027 20.1842 34.1984 20.5256C34.3941 20.8671 34.4972 21.2536 34.4974 21.6469V26.2834C34.4945 26.6761 34.3903 27.0616 34.1948 27.4026C33.9993 27.7436 33.7192 28.0288 33.3812 28.2307L29.4746 30.549C29.1311 30.7316 28.7478 30.8272 28.3584 30.8272C27.9691 30.8272 27.5858 30.7316 27.2423 30.549L23.2426 28.2307C22.9029 28.0308 22.6212 27.7461 22.4255 27.4046C22.2298 27.0631 22.1267 26.6767 22.1265 26.2834V23.316L18.5919 25.3561V28.4162C18.5949 28.8089 18.6991 29.1943 18.8945 29.5354C19.09 29.8764 19.3702 30.1616 19.7081 30.3635L27.2423 34.7218C27.5858 34.9045 27.9691 35 28.3584 35C28.7478 35 29.1311 34.9045 29.4746 34.7218L37.0088 30.3635C37.3486 30.1636 37.6302 29.8789 37.826 29.5374C38.0217 29.1959 38.1248 28.8095 38.125 28.4162V19.6068C38.122 19.2141 38.0178 18.8287 37.8224 18.4876C37.6269 18.1466 37.3467 17.8614 37.0088 17.6595L29.4746 13.3012Z" fill="#AA83EB" />
</svg>