<svg width="95" height="82" viewBox="0 0 95 82" fill="none" xmlns="http://www.w3.org/2000/svg">
<path d="M-70.6663 93.9943C-55.997 93.3601 -44.8616 81.4667 -30.4257 79.9352C-25.1217 79.3721 -19.7975 81.3744 -15.0857 83.5253C-10.1086 85.7971 -5.39034 88.5694 -0.372864 90.7627C4.22649 92.7725 8.90861 94.0739 13.9845 94.0102C18.8873 93.9476 23.7414 93.1257 28.5296 92.1616C33.5078 91.1583 38.4542 89.98 43.4855 89.2418C48.7672 88.4666 54.2007 88.2884 59.5227 88.7741C71.4021 89.858 82.7816 94.251 94.8169 93.9954V98.1857C82.495 98.1051 71.5039 91.8222 59.5227 89.9333C48.6717 88.2226 38.693 92.0375 28.5296 95.145C23.804 96.5895 18.9563 97.8803 13.9845 98.1391C9.06779 98.3957 4.32305 97.3192 -0.268867 95.6912C-9.86871 92.2878 -19.4017 86.303 -30.0129 87.056C-44.2609 88.0657 -56.2634 97.9259 -70.6674 98.1857V93.9954L-70.6663 93.9943Z" fill="#7BF404"/>
<path d="M-70.6663 86.5565C-62.8153 86.1142 -55.9885 81.3331 -49.636 77.2891C-43.9351 73.6608 -37.7609 69.3952 -30.8152 68.5191C-25.3838 67.834 -19.9132 70.5936 -15.3955 73.2005C-10.4078 76.079 -5.76174 79.4802 -0.726226 82.2855C1.61378 83.5889 4.05142 84.7715 6.62701 85.5744C9.04978 86.3295 11.4492 86.5575 13.9802 86.6137C18.8131 86.723 23.6459 86.5406 28.4713 86.2934C38.7736 85.7663 49.0219 85.41 59.3391 85.4821C71.1782 85.5648 82.9726 86.9796 94.8201 86.5565V90.7468C82.8739 91.17 71.2227 88.1367 59.3391 87.6033C54.1413 87.3699 48.8404 87.4166 43.6574 87.8631C38.5731 88.3011 33.5301 89.087 28.4723 89.734C23.6682 90.3481 18.8332 90.8465 13.9813 90.7956C8.70595 90.7405 4.00047 89.2461 -0.662551 86.9171C-5.6259 84.4374 -10.2635 81.3999 -15.1875 78.8513C-19.772 76.4788 -25.2034 74.0405 -30.5371 74.6652C-37.3958 75.4681 -43.6305 79.2024 -49.4917 82.4806C-56.0299 86.1365 -62.9246 90.3141 -70.6631 90.7468V86.5565H-70.6663Z" fill="#7BF404"/>
<path d="M-70.6663 79.1196C-62.7411 78.723 -55.928 73.7054 -49.6275 69.5182C-44.0497 65.8114 -38.0007 61.4652 -31.1155 60.5361C-25.6916 59.8043 -20.1233 62.6902 -15.6088 65.2706C-10.4778 68.2031 -5.697 71.6775 -0.511855 74.5241C4.03762 77.0218 8.69746 78.8449 13.9856 78.7474C18.8343 78.6572 23.683 78.7346 28.5307 78.8492C50.6201 79.371 72.7223 79.1207 94.8191 79.1207V83.3111C83.0533 83.5051 71.2896 83.117 59.5249 83.1456C49.1928 83.17 38.8639 83.1912 28.5318 83.3089C23.6841 83.3641 18.8354 83.3991 13.9866 83.3397C11.4354 83.3089 9.05191 83.1307 6.61109 82.3512C4.10448 81.5505 1.74643 80.3637 -0.515037 79.0581C-5.72035 76.0524 -10.4502 72.351 -15.5908 69.2499C-20.1551 66.4955 -25.5419 63.7709 -31.0974 64.4783C-38.0124 65.3596 -44.0741 69.8289 -49.6201 73.5887C-55.8792 77.8321 -62.7103 83.0024 -70.6663 83.3111V79.1207L-70.6663 79.1196Z" fill="#7BF404"/>
<path d="M-70.6663 71.6817C-56.0766 70.8619 -45.4431 58.5008 -31.1155 56.7668C-28.4412 56.4433 -25.7128 56.9991 -23.1075 57.5781C-20.568 58.1424 -18.0741 58.8816 -15.6089 59.6919C-10.5436 61.3559 -5.59513 63.3382 -0.511855 64.9545C4.20423 66.4541 9.00097 67.6484 13.9855 67.6314C18.8661 67.6144 23.7212 68.238 28.5307 68.99C33.511 69.7695 38.4712 70.6975 43.4866 71.2501C48.8245 71.8377 54.1625 71.6807 59.5238 71.6807L94.818 71.6807V75.871L59.5238 75.871C54.1773 75.871 48.8298 76.0566 43.4866 75.8201C38.4935 75.5985 33.5142 75.1552 28.5307 74.7988C23.6915 74.453 18.8396 74.189 13.9855 74.2971C8.84496 74.4117 4.06627 72.6554 -0.511855 70.5119C-5.65243 68.1044 -10.5065 65.1708 -15.6089 62.6923C-20.1626 60.4788 -25.8805 57.7584 -31.1155 58.486C-37.9105 59.431 -43.9595 63.3965 -49.6275 66.8784C-56.0415 70.8184 -62.8504 75.38 -70.6663 75.8721V71.6817V71.6817Z" fill="#7BF404"/>
<path d="M-70.6663 64.2439C-56.846 64.1219 -44.8201 55.8494 -31.1155 55.1123C-25.9664 54.8355 -20.7653 54.9712 -15.6089 54.8599C-10.5765 54.7506 -5.54419 54.6202 -0.511855 54.5141C4.28806 54.4134 9.19199 54.0867 13.9855 54.3985C18.9871 54.7241 23.8327 56.1835 28.5307 57.7945C33.4994 59.4978 38.3916 61.4482 43.4866 62.7845C46.0696 63.4623 48.7078 63.9766 51.381 64.1644C54.0818 64.3531 56.8177 64.2428 59.5238 64.2428L94.818 64.2428V68.4332L59.5238 68.4332C54.1264 68.4332 48.8224 68.5106 43.4866 67.5858C38.4415 66.7119 33.5068 65.349 28.5307 64.1824C23.7616 63.0635 18.9086 62.0952 13.9855 61.9817C9.09329 61.8682 4.30505 61.2987 -0.511855 60.4481C-5.5601 59.5572 -10.5659 58.4552 -15.6089 57.5357C-20.5775 56.63 -26.0439 55.4336 -31.1155 55.9152C-45.1597 57.2483 -56.4278 67.8817 -70.6663 68.4332V64.2428V64.2439Z" fill="#7BF404"/>
<path d="M-70.6663 56.806C-57.3468 57.2759 -44.4126 53.1937 -31.1155 53.3316C-20.3631 53.4429 -10.36 47.6044 -0.511855 44.1279C3.92725 42.5614 9.19517 40.6704 13.9855 41.295C19.1675 41.9706 23.9887 44.2912 28.5307 46.6807C33.4834 49.2865 38.2865 52.2127 43.4866 54.3519C46.0155 55.3923 48.6526 56.2397 51.381 56.6152C54.0585 56.9832 56.8251 56.8039 59.5238 56.8039H94.818V60.9943L59.5238 60.9943C56.8209 60.9943 54.0712 61.1375 51.381 60.8596C48.6855 60.5817 46.0473 59.9125 43.4866 59.064C38.347 57.3618 33.493 54.9638 28.5307 52.8469C23.8984 50.871 19.0635 49.0224 13.9855 48.5282C9.2355 48.0658 4.15223 49.1073 -0.511855 49.9165C-10.6922 51.6824 -20.7261 54.2501 -31.1155 54.4791C-44.6047 54.7761 -57.1113 61.1841 -70.6663 60.9932L-70.6663 56.8029V56.806Z" fill="#7BF404"/>
<path d="M-70.6663 49.3692C-57.4816 49.6258 -44.3002 48.9895 -31.1155 49.1815C-19.3019 49.3533 -10.1138 40.1421 -0.511878 34.7183C3.77229 32.2981 8.88103 29.8725 13.9855 30.5651C19.3224 31.2894 24.1404 34.2166 28.5307 37.0664C33.4686 40.2715 38.1889 43.8701 43.4865 46.5205C45.9656 47.7613 48.6069 48.7912 51.381 49.1931C54.0457 49.5792 56.8357 49.3692 59.5238 49.3692L94.818 49.3692V53.5595L59.5238 53.5595C56.8293 53.5595 54.0489 53.7579 51.381 53.3538C48.6292 52.937 45.9921 51.9814 43.4865 50.8275C38.242 48.4104 33.477 45.1385 28.5307 42.2166C24.0576 39.5758 19.2439 36.9423 13.9855 36.1872C9.08903 35.4851 3.79669 37.8343 -0.511878 39.8462C-5.6514 42.2463 -10.5076 45.1693 -15.6089 47.6404C-20.4587 49.9896 -25.6152 52.0694 -31.1155 51.9432C-44.3331 51.6409 -57.4434 54.076 -70.6663 53.5595L-70.6663 49.3692V49.3692Z" fill="#7BF404"/>
<path d="M-70.6664 41.541C-57.401 41.9568 -44.209 39.9809 -30.9468 40.2482C-25.4592 40.3585 -20.3038 38.2225 -15.5039 35.8256C-10.5119 33.3332 -5.76394 30.407 -0.739036 27.9751C3.61411 25.8688 9.00089 23.4167 13.9791 24.2175C19.1398 25.0479 23.9291 27.3844 28.4701 29.7993C33.5003 32.4731 38.3809 35.4586 43.6552 37.6763C46.0875 38.6987 48.6143 39.5546 51.2292 40.0095C53.895 40.4741 56.6393 40.2005 59.3369 40.2355C71.1781 40.3871 82.9651 41.9112 94.8179 41.54V45.7303C83.0521 45.9138 71.2885 45.5299 59.5237 45.5521C56.8325 45.5574 54.0446 45.8162 51.3809 45.4005C48.6111 44.9688 45.9729 43.9411 43.4865 42.7098C38.2048 40.0933 33.4706 36.568 28.5306 33.417C24.1159 30.6022 19.3043 27.7344 13.9855 26.9517C8.88628 26.2018 3.76587 28.6465 -0.511931 31.071C-10.1415 36.5308 -19.2595 45.7176 -31.1156 45.5787C-44.3002 45.4249 -57.4817 45.935 -70.6664 45.7293V41.5389L-70.6664 41.541Z" fill="#7BF404"/>
<path d="M-70.6664 34.1032C-57.2408 34.2559 -44.4987 29.1153 -31.1156 28.8788C-20.6073 28.6932 -10.687 25.4764 -0.511931 23.2958C4.17762 22.2904 9.16219 21.2595 13.9855 21.6371C18.9053 22.021 23.7456 23.0402 28.5306 24.174C33.5099 25.3534 38.4552 26.678 43.4865 27.6389C46.096 28.1374 48.7289 28.5362 51.3809 28.7504C54.0913 28.97 56.8112 28.8703 59.5237 29.1153C71.3882 30.1854 82.8165 34.24 94.8179 34.1032V38.2936C82.9025 38.6308 71.2057 36.0462 59.3369 35.5753C56.6351 35.4682 53.9077 35.6909 51.2292 35.2953C48.6483 34.9145 46.1215 34.2368 43.6552 33.418C38.4584 31.6914 33.512 29.3486 28.4701 27.2529C23.8198 25.3205 19.0167 23.5154 13.9791 22.8218C9.07836 22.1472 3.76268 24.1136 -0.739036 25.8243C-5.7268 27.7185 -10.5373 30.0178 -15.5039 31.9619C-20.4248 33.8879 -25.5887 35.5679 -30.9468 35.5085C-44.261 35.361 -57.3384 38.6701 -70.6664 38.2936V34.1032H-70.6664Z" fill="#7BF404"/>
<path d="M-70.6664 26.6663C-56.7802 26.2347 -44.8722 17.6726 -31.1156 16.6258C-26.0291 16.2387 -20.6667 17.0893 -15.6089 17.6143C-10.5734 18.1361 -5.54851 18.7427 -0.511931 19.2518C4.26358 19.7344 9.1813 20.3866 13.9855 20.1204C18.8469 19.851 23.6925 19.3706 28.5306 18.8445C33.5152 18.3026 38.4934 17.7118 43.4865 17.2452C48.8595 16.7435 54.1804 16.191 59.5237 17.1996C71.5378 19.4671 82.3899 26.2803 94.8179 26.6663V30.8567C82.651 30.7708 71.4487 25.5039 59.5237 23.9162C54.2293 23.211 48.817 23.4602 43.4865 23.1028C38.4934 22.7676 33.5152 22.2755 28.5306 21.846C23.6914 21.4292 18.8438 21.0686 13.9855 20.971C9.14946 20.8745 4.30815 21.1587 -0.511931 21.5289C-5.54851 21.916 -10.5745 22.424 -15.6089 22.827C-20.7813 23.2417 -25.9368 23.3096 -31.1156 23.5334C-44.6419 24.1167 -57.0646 30.7612 -70.6664 30.8578V26.6674V26.6663Z" fill="#7BF404"/>
<path d="M-70.6664 19.2285C-56.17 18.4977 -45.2352 6.74012 -30.9468 5.26592C-25.8031 4.73562 -20.2146 6.85891 -15.5039 8.64493C-10.5405 10.5264 -5.72255 12.7494 -0.739036 14.5831C3.77329 16.2429 9.09216 18.1796 13.9791 17.5093C19.0029 16.821 23.8071 15.0752 28.4701 13.2001C33.5131 11.1723 38.4679 8.90689 43.6552 7.23329C46.1257 6.43574 48.6525 5.77606 51.2292 5.39849C53.9947 4.99335 56.6446 5.35394 59.3369 6.04969C71.5835 9.2134 81.837 18.5741 94.8179 19.2285V23.4188C82.1055 22.8461 71.5007 14.8186 59.3369 12.1173C56.6308 11.5159 53.9905 11.237 51.2292 11.5371C48.6844 11.814 46.1597 12.2445 43.6552 12.7589C38.5465 13.8089 33.5258 15.2067 28.4701 16.4657C23.701 17.6535 18.883 18.7343 13.9791 19.2423C9.13885 19.7429 3.95158 18.4065 -0.739036 17.3269C-5.68435 16.1889 -10.567 14.8154 -15.5039 13.6477C-18.072 13.04 -20.6561 12.4874 -23.2635 12.0611C-25.7882 11.6496 -28.384 11.2105 -30.9468 11.4406C-44.9762 12.7027 -56.4799 22.7804 -70.6664 23.4188V19.2285H-70.6664Z" fill="#7BF404"/>
<path d="M-70.6664 11.7907C-55.962 11.3092 -45.5397 -1.81238 -31.1156 -3.3025C-25.7266 -3.85931 -20.3462 -1.70951 -15.6089 0.544231C-10.4991 2.97509 -5.66524 5.91927 -0.511931 8.26846C3.94203 10.2995 8.97754 12.1587 13.9855 11.5669C19.1526 10.956 23.9801 8.70861 28.5306 6.38169C33.4844 3.84901 38.2918 0.993922 43.4865 -1.06997C46.0196 -2.07647 48.6578 -2.88781 51.3809 -3.22826C54.1369 -3.57295 56.8675 -3.1869 59.5237 -2.44343C71.7342 0.975891 81.7001 11.3261 94.8179 11.7907V15.981C81.7362 15.456 71.7246 5.3105 59.5237 1.91345C56.859 1.17104 54.1412 0.773321 51.3809 1.15089C48.6663 1.52209 46.0292 2.31859 43.4865 3.29751C38.3162 5.2861 33.4887 8.00226 28.5306 10.4236C23.9451 12.6635 19.1239 14.807 13.9855 15.4773C9.04546 16.1221 3.91338 14.1568 -0.511931 12.2244C-5.64933 9.98024 -10.5087 7.19091 -15.6089 4.87247C-20.3197 2.73115 -25.8009 0.499687 -31.1156 1.07452C-45.4909 2.6304 -56.0215 15.3935 -70.6664 15.981L-70.6664 11.7907V11.7907Z" fill="#7BF404"/>
<path d="M-70.6664 4.3538C-56.3939 3.66654 -45.0484 -6.88625 -30.9468 -8.22895C-25.8338 -8.71576 -20.3165 -6.95943 -15.5039 -5.45871C-10.5522 -3.91556 -5.70451 -2.07758 -0.739036 -0.575791C3.88578 0.822056 9.0964 2.38854 13.9791 1.82643C18.9255 1.2569 23.7381 -0.0826168 28.4701 -1.54622C33.5216 -3.10846 38.5189 -4.85418 43.6552 -6.14491C46.147 -6.77171 48.6737 -7.28927 51.2292 -7.60109C53.9894 -7.93835 56.6351 -7.60957 59.3369 -6.99867C71.4943 -4.24752 82.1204 3.66972 94.8179 4.35486V8.54522C81.8137 7.83887 71.5898 -1.61622 59.3369 -4.84463C56.6542 -5.55204 53.9905 -5.93915 51.2292 -5.53401C48.6408 -5.15432 46.113 -4.44585 43.6552 -3.58466C38.4382 -1.75728 33.5088 0.739333 28.4701 2.96656C23.8474 5.00924 19.0454 6.92995 13.9791 7.61827C9.02318 8.29174 3.75631 6.30845 -0.739036 4.46834C-5.74059 2.42035 -10.5278 -0.0794353 -15.5039 -2.18363C-20.1987 -4.16798 -25.7235 -6.35914 -30.9468 -5.81931C-45.2999 -4.33767 -56.0926 7.83781 -70.6664 8.54416V4.3538Z" fill="#7BF404"/>
<path d="M-70.6664 -3.08401C-56.9925 -3.27386 -44.7003 -10.4445 -31.1156 -11.155C-25.9771 -11.4244 -20.7421 -11.0225 -15.609 -10.7648C-10.5756 -10.5123 -5.54536 -10.1984 -0.511963 -9.95553C9.16959 -9.48781 18.8405 -9.62038 28.5295 -9.65432C33.5152 -9.67129 38.4997 -9.68508 43.4854 -9.70841C48.8244 -9.7328 54.2133 -10.0128 59.5226 -9.36266C71.4168 -7.90436 82.7295 -3.23886 94.8169 -3.08507V1.10529C82.4355 0.607877 71.5187 -5.90092 59.5226 -8.15572C56.8154 -8.6648 54.1316 -8.92252 51.3798 -8.70934C48.7363 -8.50465 46.1045 -8.17587 43.4854 -7.77815C38.4753 -7.01665 33.5109 -6.00273 28.5295 -5.08957C23.7158 -4.20717 18.8734 -3.40961 13.9844 -3.04159C9.16747 -2.67887 4.19245 -3.66309 -0.513023 -4.58792C-5.56658 -5.58169 -10.5639 -6.82257 -15.61 -7.84815C-20.5882 -8.86101 -26.0079 -10.0669 -31.1166 -9.63629C-44.9423 -8.47177 -56.6975 0.593028 -70.6675 1.10529V-3.08507L-70.6664 -3.08401Z" fill="#7BF404"/>
</svg>
