<svg width="12" height="12" viewBox="0 0 12 12" fill="none" xmlns="http://www.w3.org/2000/svg">
<g clip-path="url(#clip0_3997_5680)">
<path d="M6 6C7.65685 6 9 4.65685 9 3C9 1.34315 7.65685 0 6 0C4.34315 0 3 1.34315 3 3C3 4.65685 4.34315 6 6 6Z" fill="#FFB800"/>
<path d="M12 9.89985C12.0013 9.61274 11.9196 9.33137 11.7649 9.08951C11.6102 8.84766 11.389 8.65558 11.1278 8.53635C9.51084 7.83277 7.76327 7.47952 6.00001 7.49985C4.23676 7.47952 2.48919 7.83277 0.872264 8.53635C0.611078 8.65558 0.389849 8.84766 0.235128 9.08951C0.080408 9.33137 -0.00122951 9.61274 1.3997e-05 9.89985V11.9999H12V9.89985Z" fill="#FFB800"/>
</g>
<defs>
<clipPath id="clip0_3997_5680">
<rect width="12" height="12" fill="white"/>
</clipPath>
</defs>
</svg>
